<svg width="32" height="28" viewBox="0 0 32 28" fill="none" xmlns="http://www.w3.org/2000/svg">
<rect x="0.5" y="0.5" width="31" height="27" rx="3.5" stroke="#1E1E1E"/>
<g clip-path="url(#clip0_23_902)">
<path d="M25.3333 21.3333H6.66667C6.48986 21.3333 6.32029 21.2631 6.19526 21.1381C6.07024 21.013 6 20.8435 6 20.6667C6 20.4899 6.07024 20.3203 6.19526 20.1953C6.32029 20.0702 6.48986 20 6.66667 20H25.3333C25.5101 20 25.6797 20.0702 25.8047 20.1953C25.9298 20.3203 26 20.4899 26 20.6667C26 20.8435 25.9298 21.013 25.8047 21.1381C25.6797 21.2631 25.5101 21.3333 25.3333 21.3333Z" fill="#1E1E1E"/>
<path d="M25.3333 14.6667H6.66667C6.48986 14.6667 6.32029 14.5965 6.19526 14.4714C6.07024 14.3464 6 14.1769 6 14C6 13.8232 6.07024 13.6537 6.19526 13.5286C6.32029 13.4036 6.48986 13.3334 6.66667 13.3334H25.3333C25.5101 13.3334 25.6797 13.4036 25.8047 13.5286C25.9298 13.6537 26 13.8232 26 14C26 14.1769 25.9298 14.3464 25.8047 14.4714C25.6797 14.5965 25.5101 14.6667 25.3333 14.6667Z" fill="#1E1E1E"/>
<path d="M25.3333 7.99996H6.66667C6.48986 7.99996 6.32029 7.92972 6.19526 7.8047C6.07024 7.67967 6 7.5101 6 7.33329C6 7.15648 6.07024 6.98691 6.19526 6.86189C6.32029 6.73686 6.48986 6.66663 6.66667 6.66663H25.3333C25.5101 6.66663 25.6797 6.73686 25.8047 6.86189C25.9298 6.98691 26 7.15648 26 7.33329C26 7.5101 25.9298 7.67967 25.8047 7.8047C25.6797 7.92972 25.5101 7.99996 25.3333 7.99996Z" fill="#1E1E1E"/>
</g>
<defs>
<clipPath id="clip0_23_902">
<rect width="24" height="24" fill="white" transform="translate(4 2)"/>
</clipPath>
</defs>
</svg>
