<svg width="24" height="24" viewBox="0 0 24 24" fill="none" xmlns="http://www.w3.org/2000/svg">
<path d="M9 17.0001H15M17 21.0001H7C5.93913 21.0001 4.92172 20.5786 4.17157 19.8285C3.42143 19.0783 3 18.0609 3 17.0001V10.7081C2.99999 10.0203 3.17732 9.34411 3.51487 8.74485C3.85242 8.1456 4.33879 7.64351 4.927 7.28706L9.927 4.25706C10.5521 3.87826 11.2691 3.67798 12 3.67798C12.7309 3.67798 13.4479 3.87826 14.073 4.25706L19.073 7.28706C19.6611 7.64342 20.1473 8.14535 20.4849 8.74442C20.8224 9.34348 20.9998 10.0194 21 10.7071V17.0001C21 18.0609 20.5786 19.0783 19.8284 19.8285C19.0783 20.5786 18.0609 21.0001 17 21.0001Z" stroke="white" stroke-width="1.5" stroke-linecap="round" stroke-linejoin="round"/>
</svg>
